<svg id="Camada_1" data-name="Camada 1" xmlns="http://www.w3.org/2000/svg" viewBox="0 0 383.25 383.3"><defs><style>.cls-1{fill:#fbfbfb;}</style></defs><title>config</title><path class="cls-1" d="M151.1,1A186.46,186.46,0,0,0,99.22,20.18l-3.47,1.91.19,1.67c.1.89.86,7.91,1.68,15.59s1.6,15,1.74,16.18l.26,2.23L94.7,61.47A164.69,164.69,0,0,0,70.78,83.33a51.9,51.9,0,0,1-4.37,4.53c-.29.06-31.33-6-34.45-6.7-.59-.16-1.15.53-3.64,4.37A193.8,193.8,0,0,0,7.51,128.29a99.4,99.4,0,0,0-3.24,11c0,.27,6.1,5.39,13.55,11.39l13.81,11.13a20.34,20.34,0,0,1-.43,5,159.19,159.19,0,0,0-1.8,24.38c0,4.86.1,10.41.23,12.34l.26,3.45L15,216.9C6.73,222.39,0,227,0,227.14c0,.69,2.1,10.15,3.25,14.54A176.9,176.9,0,0,0,17,277.62c2.4,4.79,4.6,9,4.83,9.29.49.66-1.58.82,29.17-2.53l6.82-.72,3.32,4.4a182.81,182.81,0,0,0,23.56,25.7,24.61,24.61,0,0,1,3.21,3.15c.1.29-5.9,31.08-6.69,34.42-.17.59.39,1.09,3.44,3.06A196.54,196.54,0,0,0,123.21,374c6.73,2.52,15.65,5.25,16.31,5,.26-.1,5.41-6.34,11.45-13.88l11-13.66,1.48.17c.82.09,3,.39,4.75.65a194.15,194.15,0,0,0,35.64,1.41l3.12-.26,10,15,9.94,14.93,1.18-.2c18-3.08,38.62-10.5,56.08-20.08l3.38-1.87-.16-1.64c-.1-.92-.86-7.91-1.68-15.59s-1.6-15-1.74-16.18l-.26-2.24,4.27-3.21a185,185,0,0,0,25.82-23.66,25,25,0,0,1,3.15-3.22c.3-.1,31.07,5.91,34.42,6.69.59.17,1.08-.46,3.31-3.87a183.67,183.67,0,0,0,16-29.9c4-9.42,8.77-23.43,8.31-24.58-.14-.36-23.56-19.49-27.07-22.12-.43-.29-.4-1,.19-5.12a154.33,154.33,0,0,0,1.84-24.38c0-4.89-.1-10.41-.23-12.34l-.26-3.45,14.93-10c8.23-5.48,15-10,15-10.17,0-.66-1.74-8.63-2.79-12.74a184.87,184.87,0,0,0-17.65-44.63l-1.68-3-1.83.16c-1,.13-7.25.79-13.95,1.54s-13.88,1.48-16,1.71l-3.87.43-3.71-4.93c-2.07-2.72-5.19-6.66-7-8.73a222.2,222.2,0,0,0-17.29-17.39,8,8,0,0,1-2.2-2.3c0-.26,1.54-8.27,3.45-17.72s3.44-17.23,3.44-17.26c0-.23-9.94-6.47-13.78-8.7A229.16,229.16,0,0,0,263.65,10.7c-8.89-3.48-19-6.73-19.95-6.37-.33.13-19.23,23.34-22.08,27.08-.3.43-1,.39-5.12-.2a151.6,151.6,0,0,0-24.87-1.84c-5.16,0-10.7.1-12.34.23l-3,.27-10-14.94C159.93,5.25,156.22,0,155.89,0S153.46.43,151.1,1Zm46.6,93.57a97.15,97.15,0,0,1,68.11,34.1,99,99,0,0,1,20.77,41.71,97.32,97.32,0,1,1-182.56-21c15.65-32.3,47-53,83-54.94A65.39,65.39,0,0,1,197.7,94.52Z" transform="translate(0)"/></svg>