<svg xmlns="http://www.w3.org/2000/svg" viewBox="0 0 512 512"><defs><style>.cls-1{fill:none;}.cls-2{fill:#0170ba;}.cls-3{fill:#29a9df;}.cls-4{fill:#cfcfcf;}.cls-5{fill:#fff;}</style></defs><title>csssymbol</title><g id="Camada_4" data-name="Camada 4"><rect class="cls-1" width="512" height="512"/></g><g id="Camada_3" data-name="Camada 3"><g id="_0170baff" data-name="#0170baff"><path class="cls-2" d="M31,.86q225,0,450,0c-8.26,93.29-16.38,186.58-25,279.85q-7.66,89.42-15.93,178.79c-32,8.48-63.71,18.14-95.7,26.66-29.39,8.63-59,16.44-88.42,25h-.87c-28-8.32-56.24-15.64-84.22-24-33-8.9-65.76-18.83-98.8-27.69-4.3-44.65-8.19-89.33-12-134C52.83,243,45,160.45,38,77.89,35.61,53,33.88,28.12,31,3.32V.86m225.7,36.8c-.31,17.92.24,35.86-.31,53.77-51.46-.19-102.93,0-154.39,0,.88,17.39,3.21,34.67,5.61,51.92,47.88,1.78,95.82-.07,143.7,1.37C209.42,163.52,167,181.22,125,199.61c-3.61,1.61-7.47,2.82-10.69,5.16.35,19.11,3.44,38.11,4.79,57.18,25.52-.1,51-.5,76.54-.54,20.45-.11,40.92.3,61.36-.15-1,31.42.31,62.88-.65,94.29-13.76-2-27.35-5.1-41.06-7.54-10.81-2.36-21.88-3.58-32.54-6.68-1.51-15.07-2.56-30.2-3.91-45.29-3.08-1-6.34-.86-9.53-.91-15.46.09-30.93-.05-46.4.18A860.34,860.34,0,0,0,131.42,382c15.24,4,30.52,7.87,45.74,12,23.32,6.35,46.93,11.63,70.29,17.87,2.78.59,5.58,1.62,8.46,1.38,1.56,19.08.36,38.28.65,57.41a116.48,116.48,0,0,0,15.88-3.8c44.22-12,88.38-24.24,132.57-36.37,2.2-17.38,3.23-34.88,5-52.3q6.9-79.44,14-158.87c5.65-60.57,10.54-121.2,16.23-181.78C379.06,37.64,317.88,37.47,256.7,37.66Z"/></g><g id="_29a9dfff" data-name="#29a9dfff"><path class="cls-3" d="M256.7,37.66c61.18-.19,122.36,0,183.55-.08C434.56,98.16,429.67,158.79,424,219.36q-7.23,79.42-14,158.87c-1.73,17.42-2.76,34.92-5,52.3-44.19,12.13-88.35,24.36-132.57,36.37a116.48,116.48,0,0,1-15.88,3.8c-.29-19.13.91-38.33-.65-57.41l1.6-.31c41.12-10.33,82-21.69,123-32.38,5.18-58.2,10.94-116.38,14.59-174.69-34.9.18-69.81.07-104.7.22-5.08,0-10.17,0-15.22-.37,18.78-9.66,38.53-17.33,57.8-25.95,18.5-8.39,37.23-16.25,55.79-24.48,3.59-1.65,7.4-3,10.55-5.47,1.24-4.54,1.17-9.29,1.66-13.94,1.07-14.75,3-29.42,3.67-44.18-49.41-.39-98.83,0-148.26-.31C256.94,73.52,256.39,55.58,256.7,37.66Z"/><path class="cls-3" d="M257,261.26c23.86-.41,47.74.24,71.61.08-1.33,24.4-3.36,48.76-4.62,73.16-14.63,4.78-29.48,8.82-44.23,13.25-7.86,2.39-15.93,4.29-23.41,7.8C257.26,324.14,256,292.68,257,261.26Z"/></g><g id="_cfcfcfff" data-name="#cfcfcfff"><path class="cls-4" d="M102,91.44c51.46,0,102.93-.2,154.39,0,.67,56.62-.17,113.24.56,169.83-20.44.45-40.91,0-61.36.15-25.51,0-51,.44-76.54.54-1.35-19.07-4.44-38.07-4.79-57.18,3.22-2.34,7.08-3.55,10.69-5.16,42.07-18.39,84.47-36.09,126.36-54.88-47.88-1.44-95.82.41-143.7-1.37C105.21,126.11,102.88,108.83,102,91.44Z"/><path class="cls-4" d="M122.86,295.31c15.47-.23,30.94-.09,46.4-.18,3.19.05,6.45,0,9.53.91,1.35,15.09,2.4,30.22,3.91,45.29,10.66,3.1,21.73,4.32,32.54,6.68,13.71,2.44,27.3,5.5,41.06,7.54,1.31,19.12-1,38.37,1.21,57.43l-1.6.31c-2.88.24-5.68-.79-8.46-1.38-23.36-6.24-47-11.52-70.29-17.87-15.22-4.15-30.5-8-45.74-12A860.34,860.34,0,0,1,122.86,295.31Z"/></g><g id="_ffffffff" data-name="#ffffffff"><path class="cls-5" d="M256.39,91.43c49.43.26,98.85-.08,148.26.31-.71,14.76-2.6,29.43-3.67,44.18-.49,4.65-.42,9.4-1.66,13.94-3.15,2.45-7,3.82-10.55,5.47-18.56,8.23-37.29,16.09-55.79,24.48-19.27,8.62-39,16.29-57.8,25.95,5.05.37,10.14.4,15.22.37,34.89-.15,69.8,0,104.7-.22-3.65,58.31-9.41,116.49-14.59,174.69-41,10.69-81.88,22-123,32.38-2.2-19.06.1-38.31-1.21-57.43,7.48-3.51,15.55-5.41,23.41-7.8,14.75-4.43,29.6-8.47,44.23-13.25,1.26-24.4,3.29-48.76,4.62-73.16-23.87.16-47.75-.49-71.61-.08C256.22,204.67,257.06,148.05,256.39,91.43Z"/></g></g></svg>