<?xml version="1.0" encoding="utf-8"?>
<!-- Generator: Adobe Illustrator 24.0.1, SVG Export Plug-In . SVG Version: 6.00 Build 0)  -->
<svg version="1.1" xmlns="http://www.w3.org/2000/svg" xmlns:xlink="http://www.w3.org/1999/xlink" x="0px" y="0px"
	 viewBox="0 0 512 512" style="enable-background:new 0 0 512 512;" xml:space="preserve">
<style type="text/css">
	.st0{fill:none;}
	.st1{display:none;}
	.st2{display:inline;}
	.st3{fill:url(#path8615_1_);}
	.st4{fill:url(#path8620_1_);}
	.st5{fill:#E34F26;}
	.st6{fill:#EF652A;}
	.st7{fill:#EBEBEB;}
	.st8{fill:#FFFFFF;}
	.st9{fill:#D4B830;}
	.st10{opacity:0.986;fill:#EBEBEB;fill-opacity:0;enable-background:new    ;}
	.st11{opacity:0.986;fill:#EBEBEB;fill-opacity:0.9216;enable-background:new    ;}
	.st12{fill:#FDD83C;}
	.st13{fill:#0170BA;}
	.st14{fill:#29A9DF;}
	.st15{fill:#CFCFCF;}
</style>
<g id="Camada_4">
	<rect class="st0" width="512" height="512"/>
</g>
<g id="Camada_5" class="st1">
	<g id="layer1" transform="translate(-473.36088,-251.72485)" class="st2">
		<g id="g1894" transform="translate(428.42338,184.2561)">
			
				<linearGradient id="path8615_1_" gradientUnits="userSpaceOnUse" x1="137.8101" y1="467.2209" x2="391.0583" y2="213.1257" gradientTransform="matrix(1 0 0 -1 -44.9375 581.4688)">
				<stop  offset="0" style="stop-color:#387EB8"/>
				<stop  offset="1" style="stop-color:#366994"/>
			</linearGradient>
			<path id="path8615" class="st3" d="M299.1,68.5c-130,0-121.9,56.4-121.9,56.4l0.1,58.4h124v17.5H128.1c0,0-83.2-9.4-83.2,121.8
				c0,131.2,72.6,126.6,72.6,126.6h43.3v-60.9c0,0-2.3-72.6,71.4-72.6s123,0,123,0s69.1,1.1,69.1-66.8s0-112.4,0-112.4
				S434.9,68.5,299.1,68.5z M230.7,107.8c12.3,0,22.3,10,22.3,22.3s-10,22.3-22.3,22.3c-12.3,0-22.3-10-22.3-22.3
				S218.4,107.8,230.7,107.8z"/>
			
				<linearGradient id="path8620_1_" gradientUnits="userSpaceOnUse" x1="293.5499" y1="305.3833" x2="565.5366" y2="44.8064" gradientTransform="matrix(1 0 0 -1 -44.9375 581.4688)">
				<stop  offset="0" style="stop-color:#FFE052"/>
				<stop  offset="1" style="stop-color:#FFC331"/>
			</linearGradient>
			<path id="path8620" class="st4" d="M302.8,578.1c130,0,121.9-56.4,121.9-56.4l-0.1-58.4h-124v-17.5h173.3
				c0,0,83.2,9.4,83.2-121.8c0-131.2-72.6-126.6-72.6-126.6H441v60.9c0,0,2.3,72.6-71.4,72.6s-123,0-123,0s-69.1-1.1-69.1,66.8
				c0,68,0,112.4,0,112.4S167,578.1,302.8,578.1z M371.2,538.8c-12.3,0-22.3-10-22.3-22.3c0-12.3,10-22.3,22.3-22.3
				s22.3,10,22.3,22.3C393.5,528.9,383.5,538.8,371.2,538.8z"/>
		</g>
	</g>
</g>
<g id="Camada_1" class="st1">
	<title>HTML5 Logo Badge</title>
	<g class="st2">
		<path class="st5" d="M71,460L30,0h451l-41,460l-185,52"/>
		<path class="st6" d="M256,472l149-41l35-394H256"/>
		<path class="st7" d="M256,208h-75l-5-58h80V94h-1H114l1,15l14,156h127V208z M256,355h-1l-63-17l-4-45h-30h-26l7,89l116,32h1V355z"
			/>
		<path class="st8" d="M255,208v57h70l-7,73l-63,17v59l116-32l1-10l13-149l2-15h-16H255z M255,94v35v21l0,0h137l0,0l0,0l1-12l3-29
			l1-15H255z"/>
	</g>
</g>
<g id="Camada_6" class="st1">
</g>
<g id="Camada_2" class="st1">
	<g class="st2">
		<g id="g5193" transform="translate(4.988 -113.385)">
			<path id="path5113" class="st9" d="M67.4,573.7L25.5,113.4l451,0.2L435,573.4l-184.3,52L67.4,573.7z M401.1,548.6l35-394.3H251.4
				l1.4,434.9L401.1,548.6z M234.1,212.1h-44.9l-0.5,236l-87.1-23.7l0.2,53.9L234.1,514L234.1,212.1L234.1,212.1z"/>
			<path id="path5159" class="st10" d="M219.4,509.6c-5.8-1.8-34.5-9.5-63.7-17.4L102.7,478v-26.5c0-26,0-26.5,2.6-25.7
				c1.4,0.5,20.8,5.8,42.9,11.9l40.3,11.1l0.4-117.7l0.4-117.7h44v149.7c0,119-0.4,149.7-1.6,149.7
				C230.8,512.6,225.2,511.2,219.4,509.6L219.4,509.6z"/>
			<path id="path5157" class="st11" d="M101.9,478.3l-0.2-53.9c0,0,55.6,15.6,87.1,23.7l0.5-235.8h44.9V514L101.9,478.3L101.9,478.3
				z"/>
			<path id="path5117" class="st12" d="M251.4,154.1h184.7l-35,394.3L251.4,589V154.1z M391.6,482.4l12.1-147.4L314,345v-78.7
				l95.7-0.4l3.9-53.8l-144.4,0.7l1.9,195.7l87.2-14.9l-1.2,43.6l-87.9,23.4L270,514L391.6,482.4L391.6,482.4z"/>
		</g>
		<polygon class="st8" points="395.8,368.3 407.8,222.5 319.1,232.4 319.1,154.6 413.8,154.2 417.6,101.1 274.8,101.8 276.7,295.3 
			363,280.6 361.7,323.7 274.8,346.8 275.6,399.6 395.8,368.3 		"/>
	</g>
</g>
<g id="Camada_3">
	<g id="_x23_0170baff">
		<path class="st13" d="M31,0.9c150,0,300,0,450,0c-8.3,93.3-16.4,186.6-25,279.8c-5.1,59.6-10.4,119.2-15.9,178.8
			c-32,8.5-63.7,18.1-95.7,26.7c-29.4,8.6-59,16.4-88.4,25h-0.9c-28-8.3-56.2-15.6-84.2-24c-33-8.9-65.8-18.8-98.8-27.7
			c-4.3-44.7-8.2-89.3-12-134c-7.2-82.5-15.1-165-22-247.6C35.6,53,33.9,28.1,31,3.3V0.9 M256.7,37.7c-0.3,17.9,0.2,35.9-0.3,53.8
			c-51.5-0.2-102.9,0-154.4,0c0.9,17.4,3.2,34.7,5.6,51.9c47.9,1.8,95.8-0.1,143.7,1.4c-41.9,18.8-84.3,36.5-126.4,54.9
			c-3.6,1.6-7.5,2.8-10.7,5.2c0.4,19.1,3.4,38.1,4.8,57.2c25.5-0.1,51-0.5,76.5-0.5c20.4-0.1,40.9,0.3,61.4-0.1
			c-1,31.4,0.3,62.9-0.7,94.3c-13.8-2-27.3-5.1-41.1-7.5c-10.8-2.4-21.9-3.6-32.5-6.7c-1.5-15.1-2.6-30.2-3.9-45.3
			c-3.1-0.9-6.3-0.9-9.5-0.9c-15.5,0.1-30.9-0.1-46.4,0.2c1.5,29,4.1,58,8.6,86.7c15.2,4,30.5,7.9,45.7,12
			c23.3,6.3,46.9,11.6,70.3,17.9c2.8,0.6,5.6,1.6,8.5,1.4c1.6,19.1,0.4,38.3,0.6,57.4c5.4-0.9,10.7-2.2,15.9-3.8
			c44.2-12,88.4-24.2,132.6-36.4c2.2-17.4,3.2-34.9,5-52.3c4.6-53,9.2-105.9,14-158.9c5.6-60.6,10.5-121.2,16.2-181.8
			C379.1,37.6,317.9,37.5,256.7,37.7z"/>
	</g>
	<g id="_x23_29a9dfff">
		<path class="st14" d="M256.7,37.7c61.2-0.2,122.4,0,183.5-0.1c-5.7,60.6-10.6,121.2-16.2,181.8c-4.8,52.9-9.5,105.9-14,158.9
			c-1.7,17.4-2.8,34.9-5,52.3c-44.2,12.1-88.4,24.4-132.6,36.4c-5.2,1.6-10.5,2.9-15.9,3.8c-0.3-19.1,0.9-38.3-0.6-57.4
			c0.4-0.1,1.2-0.2,1.6-0.3c41.1-10.3,82-21.7,123-32.4c5.2-58.2,10.9-116.4,14.6-174.7c-34.9,0.2-69.8,0.1-104.7,0.2
			c-5.1,0-10.2,0-15.2-0.4c18.8-9.7,38.5-17.3,57.8-26c18.5-8.4,37.2-16.2,55.8-24.5c3.6-1.6,7.4-3,10.5-5.5
			c1.2-4.5,1.2-9.3,1.7-13.9c1.1-14.7,3-29.4,3.7-44.2c-49.4-0.4-98.8-0.1-148.3-0.3C256.9,73.5,256.4,55.6,256.7,37.7z"/>
		<path class="st14" d="M257,261.3c23.9-0.4,47.7,0.2,71.6,0.1c-1.3,24.4-3.4,48.8-4.6,73.2c-14.6,4.8-29.5,8.8-44.2,13.2
			c-7.9,2.4-15.9,4.3-23.4,7.8C257.3,324.1,256,292.7,257,261.3z"/>
	</g>
	<g id="_x23_cfcfcfff">
		<path class="st15" d="M102,91.4c51.5-0.1,102.9-0.2,154.4,0c0.7,56.6-0.2,113.2,0.6,169.8c-20.4,0.4-40.9,0-61.4,0.1
			c-25.5,0-51,0.4-76.5,0.5c-1.4-19.1-4.4-38.1-4.8-57.2c3.2-2.3,7.1-3.6,10.7-5.2c42.1-18.4,84.5-36.1,126.4-54.9
			c-47.9-1.4-95.8,0.4-143.7-1.4C105.2,126.1,102.9,108.8,102,91.4z"/>
		<path class="st15" d="M122.9,295.3c15.5-0.2,30.9-0.1,46.4-0.2c3.2,0.1,6.5,0,9.5,0.9c1.3,15.1,2.4,30.2,3.9,45.3
			c10.7,3.1,21.7,4.3,32.5,6.7c13.7,2.4,27.3,5.5,41.1,7.5c1.3,19.1-1,38.4,1.2,57.4c-0.4,0.1-1.2,0.2-1.6,0.3
			c-2.9,0.2-5.7-0.8-8.5-1.4c-23.4-6.2-47-11.5-70.3-17.9c-15.2-4.1-30.5-8-45.7-12C127,353.3,124.4,324.3,122.9,295.3z"/>
	</g>
	<g id="_x23_ffffffff">
		<path class="st8" d="M256.4,91.4c49.4,0.3,98.8-0.1,148.3,0.3c-0.7,14.8-2.6,29.4-3.7,44.2c-0.5,4.6-0.4,9.4-1.7,13.9
			c-3.1,2.4-7,3.8-10.5,5.5c-18.6,8.2-37.3,16.1-55.8,24.5c-19.3,8.6-39,16.3-57.8,26c5.1,0.4,10.1,0.4,15.2,0.4
			c34.9-0.1,69.8,0,104.7-0.2c-3.6,58.3-9.4,116.5-14.6,174.7c-41,10.7-81.9,22.1-123,32.4c-2.2-19.1,0.1-38.3-1.2-57.4
			c7.5-3.5,15.6-5.4,23.4-7.8c14.7-4.4,29.6-8.5,44.2-13.2c1.3-24.4,3.3-48.8,4.6-73.2c-23.9,0.2-47.7-0.5-71.6-0.1
			C256.2,204.7,257.1,148,256.4,91.4z"/>
	</g>
</g>
</svg>
