<svg xmlns="http://www.w3.org/2000/svg" viewBox="0 0 512 512"><defs><style>.cls-1{fill:none;}.cls-2{fill:#d4b830;}.cls-3,.cls-4{fill:#ebebeb;opacity:0.99;isolation:isolate;}.cls-3{fill-opacity:0;}.cls-4{fill-opacity:0.92;}.cls-5{fill:#fdd83c;}.cls-6{fill:#fff;}</style></defs><title>jssymbol</title><g id="Camada_4" data-name="Camada 4"><rect class="cls-1" width="512" height="512"/></g><g id="Camada_2" data-name="Camada 2"><g id="g5193"><path id="path5113" class="cls-2" d="M72.36,460.34,30.5,0l451,.18L440,460,255.65,512ZM406,435.22,441,40.94H256.35l1.41,434.87ZM239.11,98.75H194.26l-.53,236L106.66,311l.18,53.94L239.11,400.6V98.75Z"/><path id="path5159" class="cls-3" d="M224.34,396.21c-5.81-1.76-34.48-9.49-63.68-17.39l-52.94-14.24V338.05c0-26,0-26.53,2.64-25.65,1.4.53,20.75,5.8,42.92,12l40.28,11.07.35-117.72L194.26,100h44V249.67c0,119-.35,149.7-1.58,149.7-.88-.17-6.51-1.58-12.31-3.16Z"/><path id="path5157" class="cls-4" d="M106.84,364.94,106.66,311s55.59,15.63,87.07,23.72l.53-235.8h44.85V400.6L106.84,364.94Z"/><path id="path5117" class="cls-5" d="M256.35,40.76H441L406,435,256.35,475.63ZM396.54,369l12.14-147.42-89.71,10V152.86l95.69-.35,3.87-53.76-144.41.7,1.93,195.73,87.25-14.93-1.23,43.57-87.95,23.37L275,400.6,396.54,369Z"/></g><polygon class="cls-6" points="395.84 368.31 407.84 222.53 319.13 232.43 319.13 154.59 413.76 154.24 417.58 101.07 274.77 101.77 276.68 295.33 362.96 280.56 361.74 323.66 274.77 346.77 275.64 399.59 395.84 368.31 395.84 368.31"/></g></svg>