<svg id="Camada_1" data-name="Camada 1" xmlns="http://www.w3.org/2000/svg" viewBox="0 0 383.24 383.3"><defs><style>.cls-1{fill:#fff;}</style></defs><title>logout</title><path class="cls-1" d="M132.5,383.3h-9.73c-2.48-.77-5-1.5-7.43-2.32Q70,365.88,24.6,350.73C7.83,345.12,0,334.26,0,316.62V30.31C.76,13.8,15,.05,31.3.06h90.18c29,0,57.89-.13,86.83,0C232.53.21,254.1,19.9,255.08,43.4c.74,17.81.35,35.67.18,53.51-.07,6.62-3.89,11.24-9.91,13.73A15.72,15.72,0,0,1,223.66,96.2c-.23-15.34-.06-30.69-.08-46,0-11.78-6.27-18.13-17.92-18.14H139c-1.07,0-2.15.1-3.28.15.19,1,1,.92,1.48,1.12,15.07,5.9,22.33,16.47,22.34,32.72V298.47c0,4.93,0,4.93,5.09,4.93,13.22,0,26.47-.42,39.67.12,13,.54,19.64-7.92,19.37-19.57-.46-19.46-.13-38.93-.12-58.39a22.32,22.32,0,0,1,.55-6.31c2.15-7.36,9.43-12.39,16.77-11.54,8.33,1,14.34,7.14,14.41,15.46.15,21.08.13,42.17.06,63.25-.11,28.35-20.9,48.94-49.33,49-14.22,0-28.44.1-42.66-.07-3.17,0-4,.9-3.88,4,.25,4.48.15,9,0,13.47-.38,10-4.78,17.86-12.53,24C142.69,380.24,137.55,381.64,132.5,383.3Z" transform="translate(-0.01 0)"/><path class="cls-1" d="M383.25,163.23c-1.78,4.78-5.15,8.35-8.7,11.88q-29.44,29.29-58.75,58.73c-4.23,4.24-9.11,6.55-15.15,5.46-7.94-1.43-13.15-7.85-13.19-16.24-.07-14.47-.11-28.94,0-43.41,0-3-.67-4-3.86-4-19.58.15-39.16.11-58.75.06-8.91,0-15.36-5-16.93-12.84-2-10.19,5.36-19.08,16.11-19.12q29.55-.1,59.12,0c3.3,0,4.38-.68,4.33-4.21-.23-14.09,0-28.19-.12-42.28,0-7.48,3-13.07,9.84-16.17,6.25-2.82,12.83-1.2,18.4,4.36q31.11,31,62.21,62.14a26.4,26.4,0,0,1,5.39,8.81Z" transform="translate(-0.01 0)"/></svg>