<svg id="Camada_5" data-name="Camada 5" xmlns="http://www.w3.org/2000/svg" xmlns:xlink="http://www.w3.org/1999/xlink" viewBox="0 0 512 509.67"><defs><style>.cls-1{fill:url(#Gradiente_sem_nome_3);}.cls-2{fill:url(#Gradiente_sem_nome_2);}</style><linearGradient id="Gradiente_sem_nome_3" x1="92.87" y1="399.75" x2="346.12" y2="145.66" gradientTransform="matrix(1, 0, 0, -1, -44.94, 446.53)" gradientUnits="userSpaceOnUse"><stop offset="0" stop-color="#387eb8"/><stop offset="1" stop-color="#366994"/></linearGradient><linearGradient id="Gradiente_sem_nome_2" x1="248.61" y1="237.91" x2="520.6" y2="-22.66" gradientTransform="matrix(1, 0, 0, -1, -44.94, 446.53)" gradientUnits="userSpaceOnUse"><stop offset="0" stop-color="#ffe052"/><stop offset="1" stop-color="#ffc331"/></linearGradient></defs><title>pythonsymbol</title><g id="layer1"><g id="g1894"><path id="path8615" class="cls-1" d="M254.15,1c-130,0-121.86,56.4-121.86,56.4l.15,58.44h124v17.54H83.17S0,123.94,0,255.18,72.59,381.76,72.59,381.76h43.33v-60.9s-2.34-72.64,71.44-72.64h123s69.11,1.11,69.11-66.85V69S390,1,254.15,1ZM185.76,40.29a22.33,22.33,0,1,1-22.31,22.33A22.31,22.31,0,0,1,185.76,40.29Z" transform="translate(0 -1)"/><path id="path8620" class="cls-2" d="M257.85,510.67c130,0,121.86-56.41,121.86-56.41l-.15-58.43h-124V378.29h173.3S512,387.73,512,256.49s-72.59-126.58-72.59-126.58H396.08v60.9s2.34,72.64-71.44,72.64h-123s-69.11-1.12-69.11,66.84V442.66S122,510.67,257.85,510.67Zm68.39-39.3A22.33,22.33,0,1,1,348.55,449,22.31,22.31,0,0,1,326.24,471.37Z" transform="translate(0 -1)"/></g></g></svg>